<?xml version="1.0" encoding="utf-8"?>
<!-- Generator: Adobe Illustrator 23.0.0, SVG Export Plug-In . SVG Version: 6.00 Build 0)  -->
<svg version="1.1" id="Capa_1" xmlns="http://www.w3.org/2000/svg" xmlns:xlink="http://www.w3.org/1999/xlink" x="0px" y="0px"
	 viewBox="0 0 3430.5 512" style="enable-background:new 0 0 3430.5 512;" xml:space="preserve">
<style type="text/css">
	.st0{fill:#FFFFFF;stroke:#FFFFFF;stroke-miterlimit:10;}
</style>
<title>mundologofree</title>
<g>
	<g id="Capa_1-2">
		<path class="st0" d="M310,496h-52c-2.2,0-4-1.8-4-4s1.8-4,4-4h52c8.8,0,16-7.2,16-16V352c0-8.8-7.2-16-16-16H126
			c-8.8,0-16,7.2-16,16v120c0,8.8,7.2,16,16,16h52c2.2,0,4,1.8,4,4s-1.8,4-4,4h-52c-13.2-0.1-23.9-10.8-24-24V352
			c0.1-13.2,10.8-23.9,24-24h184c13.2,0.1,23.9,10.8,24,24v120C333.9,485.2,323.2,495.9,310,496z"/>
		<path class="st0" d="M218,256c-41.6,0.1-78.1-27.8-88.8-68c-4.9-0.2-9.7-1.9-13.6-4.9c-1-0.8-1.6-1.9-1.6-3.2v-31.8
			c0-1.3,0.6-2.4,1.6-3.2c3.9-3,8.7-4.7,13.6-4.9c13.3-49,63.8-78,112.9-64.7c31.6,8.5,56.2,33.2,64.7,64.7
			c4.9,0.2,9.7,1.9,13.6,4.9c1,0.7,1.6,1.9,1.6,3.2v31.8c0,1.3-0.6,2.5-1.6,3.2c-3.9,3-8.7,4.7-13.6,4.9
			C296.1,228.2,259.6,256.1,218,256z M131.7,179.8c2,0,4.1,1.2,4.5,3.1c10.3,45.2,55.3,73.4,100.5,63.1c31.4-7.2,56-31.7,63.1-63.1
			c0.4-2,2.3-3.4,4.4-3.1l1.8,0.2c2.8,0,5.6-0.8,8-2.2v-27.6c-2.7-1.7-5.9-2.4-9.1-2.1c-2,0.3-4.6-1-5.1-3
			C289.5,99.9,244.5,71.7,199.3,82c-31.4,7.2-56,31.7-63.1,63.1c-0.5,2-2.4,3.3-4.4,3.1L130,148c-2.8,0-5.6,0.8-8,2.2v27.6
			c2.7,1.7,5.9,2.4,9.1,2.1L131.7,179.8z"/>
		<path class="st0" d="M74,456c-2.2,0-4-1.8-4-4V347.6c-0.1-25.6,15.2-48.8,38.8-58.9l75.6-32.4c2-0.9,4.4,0.1,5.3,2.1
			c0.9,2-0.1,4.4-2.1,5.3l-75.7,32.4C91.3,304.9,78,325.2,78,347.6V452C78,454.2,76.2,456,74,456z"/>
		<path class="st0" d="M362,456c-2.2,0-4-1.8-4-4V347.6c0-22.4-13.3-42.7-33.9-51.5l-75.7-32.4c-2-0.9-2.9-3.3-2.1-5.3
			c0.9-2,3.3-2.9,5.3-2.1l75.6,32.4c23.6,10.1,38.9,33.3,38.8,58.9V452C366,454.2,364.2,456,362,456z"/>
		<path class="st0" d="M218,312c-1.3,0-2.6-0.7-3.3-1.8l-32-48c-0.5-0.6-0.7-1.4-0.7-2.2v-14.1c0-1.3,0.7-2.5,1.7-3.3
			c1.1-0.7,2.5-0.9,3.8-0.4c19.6,7.7,41.4,7.7,61,0c1.2-0.5,2.6-0.3,3.7,0.4c1.1,0.7,1.8,2,1.8,3.3V260c0,0.8-0.2,1.6-0.7,2.2
			l-32,48C220.6,311.3,219.3,312,218,312z M190,258.8l28,42l28-42v-7.2c-18.2,5.8-37.8,5.8-56,0V258.8z M250,260L250,260z"/>
		<path class="st0" d="M108,253.7H36c-2.2,0-4-1.8-4-4s1.8-4,4-4h72c2.2,0,4,1.8,4,4S110.2,253.7,108,253.7z"/>
		<path class="st0" d="M20,253.7H4c-2.2,0-4-1.8-4-4s1.8-4,4-4h16c2.2,0,4,1.8,4,4S22.2,253.7,20,253.7z"/>
		<path class="st0" d="M400,253.7h-72c-2.2,0-4-1.8-4-4s1.8-4,4-4h72c2.2,0,4,1.8,4,4S402.2,253.7,400,253.7z"/>
		<path class="st0" d="M432,253.7h-16c-2.2,0-4-1.8-4-4s1.8-4,4-4h16c2.2,0,4,1.8,4,4S434.2,253.7,432,253.7z"/>
		<path class="st0" d="M242,512c-2.2,0-4-1.8-4-4v-36h-40v36c0,2.2-1.8,4-4,4s-4-1.8-4-4v-40c0-2.2,1.8-4,4-4h48c2.2,0,4,1.8,4,4v40
			C246,510.2,244.2,512,242,512z"/>
		<path class="st0" d="M86,60H54c-2.2,0-4-1.8-4-4s1.8-4,4-4h32c2.2,0,4,1.8,4,4S88.2,60,86,60z"/>
		<path class="st0" d="M70,76c-2.2,0-4-1.8-4-4V40c0-2.2,1.8-4,4-4s4,1.8,4,4v32C74,74.2,72.2,76,70,76z"/>
		<path class="st0" d="M54,100H22c-2.2,0-4-1.8-4-4s1.8-4,4-4h32c2.2,0,4,1.8,4,4S56.2,100,54,100z"/>
		<path class="st0" d="M38,116c-2.2,0-4-1.8-4-4V80c0-2.2,1.8-4,4-4s4,1.8,4,4v32C42,114.2,40.2,116,38,116z"/>
		<path class="st0" d="M138,156h-4v-52h24v32C157.9,147,149,155.9,138,156z"/>
		<path class="st0" d="M138,160h-4c-2.2,0-4-1.8-4-4v-52c0-2.2,1.8-4,4-4h24c2.2,0,4,1.8,4,4v32C161.9,149.2,151.2,159.9,138,160z
			 M138,152L138,152z M138,108v44c8.8,0,16-7.2,16-16v-28H138z"/>
		<path class="st0" d="M278,103.6V136c0.1,11,9,19.9,20,20h4V92.5C295.5,98.8,287,102.8,278,103.6z"/>
		<path class="st0" d="M302,160h-4c-13.2-0.1-23.9-10.8-24-24v-32.4c0-2.1,1.5-3.8,3.6-4c8.1-0.7,15.7-4.2,21.6-9.9
			c1.1-1.2,2.8-1.5,4.3-0.9c1.5,0.6,2.5,2.1,2.5,3.7V156C306,158.2,304.2,160,302,160z M282,107.1V136c0,8.8,7.2,16,16,16v-51.2
			C293.1,103.9,287.7,106,282,107.1z"/>
		<path class="st0" d="M218,208c-11.7,0-22.9-4.6-31.1-12.9c-1.3-1.8-1-4.3,0.8-5.6c1.4-1.1,3.4-1.1,4.8,0c14.1,14,36.9,14,51,0
			c1.8-1.3,4.3-1,5.6,0.8c1.1,1.4,1.1,3.4,0,4.8C240.9,203.4,229.7,208,218,208z"/>
		<path class="st0" d="M274,104H134c0-33.1,26.9-60,60-60h41.6c17.4,0,34.5-3.8,50.3-11L314,20v44C314,86.1,296.1,104,274,104z"/>
		<path class="st0" d="M274,108H134c-2.2,0-4-1.8-4-4c0.1-35.3,28.7-63.9,64-64h41.6c16.8,0,33.4-3.7,48.7-10.7l28-12.9
			c1.9-1,4.3-0.3,5.3,1.7c0.3,0.6,0.5,1.3,0.4,1.9v44C318,88.3,298.3,108,274,108z M138.1,100H274c19.9-0.1,35.9-16.1,36-36V26.2
			l-22.4,10.4c-16.3,7.5-34.1,11.4-52,11.4H194C164.6,48.1,140.3,70.7,138.1,100z"/>
		<path class="st0" d="M318,136c-2.2,0-4-1.8-4-4v-24.6c0-2.7-0.1-5.4-0.3-8c-0.5-2.2,0.9-4.3,3-4.8c2.2-0.5,4.3,0.9,4.8,3
			c0.1,0.3,0.1,0.7,0.1,1c0.3,2.9,0.4,5.8,0.4,8.7V132C322,134.2,320.2,136,318,136z"/>
		<path class="st0" d="M318,132h12c11,0.1,19.9,9,20,20v24c-0.1,11-9,19.9-20,20h-12V132z"/>
		<path class="st0" d="M330,200h-12c-2.2,0-4-1.8-4-4v-64c0-2.2,1.8-4,4-4h12c13.2,0.1,23.9,10.8,24,24v24
			C353.9,189.2,343.2,199.9,330,200z M322,192h8c8.8,0,16-7.2,16-16v-24c0-8.8-7.2-16-16-16h-8V192z"/>
		<path class="st0" d="M118,196h-12c-11-0.1-19.9-9-20-20v-24c0.1-11,9-19.9,20-20h12V196z"/>
		<path class="st0" d="M118,200h-12c-13.2-0.1-23.9-10.8-24-24v-24c0.1-13.2,10.8-23.9,24-24h12c2.2,0,4,1.8,4,4v64
			C122,198.2,120.2,200,118,200z M106,136c-8.8,0-16,7.2-16,16v24c0,8.8,7.2,16,16,16h8v-56H106z"/>
		<path class="st0" d="M318,136c-2.2,0-4-1.8-4-4v-28c0-1.1-0.1-2.1-0.1-3.2l-0.2-1.7c-0.1-2.2,1.6-4.1,3.8-4.2c0,0,0,0,0,0
			c2.1-0.2,4,1.3,4.2,3.4c0,0.1,0,0.3,0,0.4v1.6c0.1,1.2,0.2,2.5,0.2,3.7v28C321.9,134.2,320.2,135.9,318,136z"/>
		<path class="st0" d="M118,136c-2.2,0-4-1.8-4-4v-28C114,46.6,160.6,0,218,0c20.5,0,40.5,6.1,57.6,17.4c1.8,1.3,2.3,3.7,1.1,5.6
			c-1.2,1.8-3.7,2.3-5.5,1.1C227.1-5.3,167.5,6.7,138.1,50.8C127.6,66.6,122,85.1,122,104v28C122,134.2,120.2,136,118,136z"/>
		<path class="st0" d="M186,436c-0.9,0-1.7-0.3-2.4-0.8l-32-24c-1.8-1.3-2.1-3.8-0.8-5.6c0.2-0.3,0.5-0.6,0.8-0.8l32-24
			c1.8-1.3,4.3-1,5.6,0.8c1.3,1.8,1,4.3-0.8,5.6L160.7,408l27.7,20.8c1.8,1.3,2.1,3.8,0.8,5.6l0,0C188.4,435.4,187.3,436,186,436z"
			/>
		<path class="st0" d="M250,436c-1.3,0-2.4-0.6-3.2-1.6c-1.3-1.8-1-4.3,0.8-5.6l0,0l27.7-20.8l-27.7-20.8c-1.8-1.3-2.1-3.8-0.8-5.6
			s3.8-2.1,5.6-0.8c0,0,0,0,0,0l32,24c1.8,1.3,2.1,3.8,0.8,5.6c-0.2,0.3-0.5,0.6-0.8,0.8l-32,24C251.7,435.7,250.9,436,250,436z"/>
		<path class="st0" d="M202,436c-0.8,0-1.6-0.2-2.2-0.7c-1.8-1.1-2.4-3.4-1.3-5.2c0.1-0.1,0.1-0.2,0.2-0.3l32-48
			c1.5-1.7,4-1.8,5.6-0.4c1.4,1.2,1.8,3.2,1,4.8l-32,48C204.6,435.3,203.3,436,202,436z"/>
		<path class="st0" d="M570.1,410.9h-89.4V74.8h198.6v72.9H570.1v64.1h100.7v72.9H570.1V410.9z"/>
		<path class="st0" d="M825.3,288.6v122.3h-90.8V74.8h110.1c91.3,0,136.9,33.1,137,99.3c0,38.9-19,69-57,90.3l97.9,146.5H919.6
			l-71.3-122.3H825.3z M825.3,220.3h17c31.7,0,47.6-14,47.6-42.1c0-23.1-15.6-34.6-46.7-34.7h-17.9V220.3z"/>
		<path class="st0" d="M1252.7,410.9h-199.6V74.8h199.6v72.9h-108.8v52.8h100.7v72.9h-100.7v63.5h108.8L1252.7,410.9z"/>
		<path class="st0" d="M1511.1,410.9h-199.6V74.8h199.6v72.9h-108.8v52.8H1503v72.9h-100.7v63.5h108.8L1511.1,410.9z"/>
		<path class="st0" d="M1569.9,410.9V74.8h90.8v262.8h129.5v73.3L1569.9,410.9z"/>
		<path class="st0" d="M2050.2,410.9l-16.6-63h-109.2l-17,63h-99.8l109.7-337.5h121.1l111.1,337.5H2050.2z M2014.8,273.4l-14.5-55.2
			c-3.4-12.2-7.5-28.1-12.3-47.5s-8-33.5-9.6-41.9c-1.3,7.8-4.1,20.7-8.1,38.6s-13.1,53.3-27,106H2014.8z"/>
		<path class="st0" d="M2505.8,410.9h-119.1L2264,174.1h-2.1c2.9,37.2,4.4,65.7,4.4,85.3v151.5h-80.5V74.8h118.6l122.3,233.6h1.4
			c-2.1-33.9-3.2-61.1-3.2-81.7V74.8h80.9L2505.8,410.9z"/>
		<path class="st0" d="M2728.1,144.4c-21.6,0-38.4,8.9-50.5,26.6c-12.2,17.7-18.2,42.1-18.2,73.2c0,64.7,24.6,97.1,73.8,97
			c14.6,0.1,29.2-2,43.2-6.2c14.3-4.2,28.3-9.2,42.1-14.9v76.8c-28.1,12.4-59.8,18.6-95.2,18.6c-50.7,0-89.6-14.7-116.7-44.2
			c-27.1-29.5-40.6-72-40.5-127.5c0-34.8,6.5-65.4,19.6-91.8c13.1-26.4,31.9-46.7,56.6-60.8C2666.9,77,2695.8,70,2729,70
			c36.1-0.1,71.7,8,104.2,23.6l-27.8,71.5c-12.1-5.7-24.6-10.6-37.3-14.7C2755.2,146.3,2741.7,144.3,2728.1,144.4z"/>
		<path class="st0" d="M3083.5,410.9H2884V74.8h199.5v72.9h-108.7v52.8h100.7v72.9h-100.7v63.5h108.7V410.9z"/>
		<path class="st0" d="M3233.2,288.6v122.3h-90.8V74.8h110.1c91.4,0,137.1,33.1,137,99.3c0,38.9-19,69-57,90.3l98,146.5h-103
			l-71.3-122.3L3233.2,288.6z M3233.2,220.3h17c31.7,0,47.6-14,47.6-42.1c0-23.1-15.5-34.7-46.7-34.7h-17.9L3233.2,220.3z"/>
	</g>
</g>
</svg>
